<svg width="165" height="166" viewBox="0 0 165 166" fill="none" xmlns="http://www.w3.org/2000/svg">
<path d="M160.296 95.1691H141.565C138.979 95.1691 136.882 97.2647 136.882 99.8496V132.613C136.882 135.198 134.786 137.293 132.199 137.293H99.4199C96.8337 137.293 94.7372 139.389 94.7372 141.974V160.695C94.7372 163.28 96.8337 165.376 99.4199 165.376H160.296C162.882 165.376 164.979 163.28 164.979 160.695V99.8496C164.979 97.2647 162.882 95.1691 160.296 95.1691Z" fill="url(#paint0_linear_9_227)"/>
<path d="M94.7372 5.30448V24.0263C94.7372 26.6112 96.8337 28.7067 99.4199 28.7067H132.199C134.786 28.7067 136.882 30.8022 136.882 33.3872V66.1503C136.882 68.7353 138.979 70.8308 141.565 70.8308H160.296C162.882 70.8308 164.979 68.7353 164.979 66.1503V5.30447C164.979 2.71954 162.882 0.624023 160.296 0.624023L99.4199 0.624026C96.8337 0.624026 94.7372 2.71954 94.7372 5.30448Z" fill="url(#paint1_linear_9_227)"/>
<path d="M4.82781 70.8308H23.5589C26.1452 70.8308 28.2417 68.7353 28.2417 66.1503L28.2417 33.3872C28.2417 30.8022 30.3383 28.7067 32.9245 28.7067L65.7039 28.7067C68.2902 28.7067 70.3867 26.6112 70.3867 24.0263V5.30448C70.3867 2.71954 68.2902 0.624026 65.7039 0.624027L4.8278 0.624032C2.24158 0.624032 0.145024 2.71954 0.145024 5.30448L0.145029 66.1503C0.145029 68.7353 2.24158 70.8308 4.82781 70.8308Z" fill="url(#paint2_linear_9_227)"/>
<path d="M70.3867 160.695V141.974C70.3867 139.389 68.2902 137.293 65.7039 137.293H32.9245C30.3382 137.293 28.2417 135.198 28.2417 132.613V99.8496C28.2417 97.2647 26.1451 95.1691 23.5589 95.1691H4.8278C2.24158 95.1691 0.145022 97.2647 0.145022 99.8496L0.14502 160.695C0.145019 163.28 2.24157 165.376 4.8278 165.376L65.7039 165.376C68.2902 165.376 70.3867 163.28 70.3867 160.695Z" fill="url(#paint3_linear_9_227)"/>
<path d="M68.5136 73.6391C68.5136 71.0541 70.6101 68.9586 73.1964 68.9586H91.9275C94.5137 68.9586 96.6103 71.0541 96.6103 73.6391V92.3609C96.6103 94.9458 94.5137 97.0413 91.9275 97.0413H73.1964C70.6101 97.0413 68.5136 94.9458 68.5136 92.3609V73.6391Z" fill="url(#paint4_linear_9_227)"/>
<defs>
<linearGradient id="paint0_linear_9_227" x1="-29.3565" y1="31.983" x2="208.456" y2="156.583" gradientUnits="userSpaceOnUse">
<stop offset="0.0364583" stop-color="#3b82f6"/>
<stop offset="0.933598" stop-color="#3b82f6"/>
</linearGradient>
<linearGradient id="paint1_linear_9_227" x1="-29.3565" y1="31.983" x2="208.456" y2="156.583" gradientUnits="userSpaceOnUse">
<stop offset="0.0364583" stop-color="#3b82f6"/>
<stop offset="0.933598" stop-color="#3b82f6"/>
</linearGradient>
<linearGradient id="paint2_linear_9_227" x1="-29.3565" y1="31.983" x2="208.456" y2="156.583" gradientUnits="userSpaceOnUse">
<stop offset="0.0364583" stop-color="#3b82f6"/>
<stop offset="0.933598" stop-color="#3b82f6"/>
</linearGradient>
<linearGradient id="paint3_linear_9_227" x1="-29.3565" y1="31.983" x2="208.456" y2="156.583" gradientUnits="userSpaceOnUse">
<stop offset="0.0364583" stop-color="#3b82f6"/>
<stop offset="0.933598" stop-color="#3b82f6"/>
</linearGradient>
<linearGradient id="paint4_linear_9_227" x1="-29.3565" y1="31.983" x2="208.456" y2="156.583" gradientUnits="userSpaceOnUse">
<stop offset="0.0364583" stop-color="#3b82f6"/>
<stop offset="0.933598" stop-color="#3b82f6"/>
</linearGradient>
</defs>
</svg>
